<svg role="img" aria-label="Reverse Turn (W1-3)" xmlns="http://www.w3.org/2000/svg" viewBox="0 0 40.873 40.873"><path d="M20.436 40.873C19.934 40.873 19.463 40.678 19.109 40.323L0.548 21.763C0.193 21.408 -0.002 20.937 -0.002 20.436C-0.002 19.934 0.193 19.463 0.548 19.109L19.109 0.548C19.463 0.193 19.934 -0.002 20.436 -0.002C20.937 -0.002 21.408 0.193 21.763 0.548L40.323 19.109C40.678 19.463 40.873 19.934 40.873 20.436C40.873 20.937 40.678 21.408 40.323 21.763L21.763 40.323C21.408 40.678 20.937 40.873 20.436 40.873Z" fill="#FFCD00"/><path d="M20.436 -0.004C19.934 -0.004 19.462 0.192 19.107 0.547L0.547 19.107C0.192 19.462 -0.003 19.934 -0.003 20.436C-0.003 20.937 0.192 21.409 0.547 21.764L19.107 40.324C19.462 40.679 19.934 40.875 20.436 40.875C20.937 40.875 21.409 40.679 21.764 40.324L40.324 21.764C40.679 21.409 40.875 20.937 40.875 20.436C40.875 19.934 40.679 19.462 40.324 19.107L21.764 0.547C21.409 0.192 20.937 -0.004 20.436 -0.004ZM20.436 0C20.915 0 21.395 0.183 21.761 0.549L40.322 19.11C41.054 19.842 41.054 21.029 40.322 21.761L21.761 40.322C21.395 40.688 20.915 40.871 20.436 40.871C19.956 40.871 19.476 40.688 19.11 40.322L0.549 21.761C-0.183 21.029 -0.183 19.842 0.549 19.11L19.11 0.549C19.476 0.183 19.956 0 20.436 0Z" fill="#000000"/><path d="M0.903 21.408C0.367 20.872 0.367 19.999 0.903 19.463L19.463 0.903C19.999 0.367 20.872 0.367 21.408 0.903L39.968 19.463C40.505 19.999 40.505 20.872 39.968 21.408L21.408 39.968C20.872 40.505 19.999 40.505 19.463 39.968Z" fill="#000000"/><path d="M1.433 20.877C1.189 20.634 1.189 20.237 1.433 19.994L19.994 1.433C20.237 1.189 20.634 1.189 20.877 1.433L39.438 19.994C39.682 20.237 39.682 20.634 39.438 20.877L20.877 39.438C20.634 39.682 20.237 39.682 19.994 39.438Z" fill="#FFCD00"/><path d="M19.148 15.173C19.083 15.192 19.016 15.201 18.951 15.201C18.563 15.201 18.248 14.887 18.248 14.498C18.248 14.361 18.288 14.223 18.371 14.101L23.873 6.061L29.375 14.101C29.458 14.223 29.498 14.361 29.498 14.498C29.498 14.887 29.183 15.201 28.795 15.201C28.729 15.201 28.663 15.192 28.598 15.173L23.873 13.795Z" fill="#000000"/><path d="M20.764 19.061C21.316 19.061 21.764 18.613 21.764 18.061L21.764 13.532L25.982 13.532L25.982 20.279C25.982 21.936 24.639 23.279 22.982 23.279L17.92 23.279C17.368 23.279 16.92 23.727 16.92 24.279L16.92 31.06L12.701 31.06L12.701 22.06C12.701 20.404 14.045 19.061 15.701 19.061Z" fill="#000000"/></svg>